<?xml version="1.0" standalone="no"?><!DOCTYPE svg PUBLIC "-//W3C//DTD SVG 1.1//EN" "http://www.w3.org/Graphics/SVG/1.1/DTD/svg11.dtd"><svg t="1516609838330" class="icon" style="" viewBox="0 0 1024 1024" version="1.1" xmlns="http://www.w3.org/2000/svg" p-id="3620" xmlns:xlink="http://www.w3.org/1999/xlink" width="24" height="24"><defs><style type="text/css"></style></defs><path d="M772.022989 461.499802c4.561101-4.502528 7.773389-10.336461 8.83968-16.952115 2.105037-13.195571-4.464845-26.094285-16.504525-32.172749l-199.027917-100.425216 34.592256-218.518835c2.065101-13.194547-3.541811-25.056666-15.591731-31.097242-12.04992-6.028288-24.344474-1.43872-33.888154 8.007373L397.330227 221.701325l-205.538406-97.331814c-12.059136-6.069248-28.729446-5.785805-38.301901 3.669606l0.577126 0.587366c-9.563238 9.455309-10.718515 25.087386-4.580557 37.008896l98.82368 205.795021L95.121203 520.510874c-9.542758 9.445069-14.202061 21.601997-8.093696 33.514291 6.107341 11.913318 16.952832 16.308429 30.295245 14.272102l221.669478-33.701581 102.20073 197.553357c6.156493 11.90103 19.359744 18.527949 32.713318 16.433254 6.675251-1.045811 12.636262-4.156621 17.189171-8.670515 4.550861-4.494336 7.713997-10.376294 8.769024-16.973619l35.070157-217.853747 219.917517-34.972467C761.509171 469.056922 767.481446 466.001408 772.022989 461.499802zM629.244518 528.803738l-65.524941 7.851827-8.938906 55.465267 299.443917 335.941222c0 0 45.485773-12.187546 68.784333-35.268198 28.375347-28.131738 45.592166-78.337126 45.592166-78.337126L629.244518 528.803738z" p-id="3621"></path></svg>