<?xml version="1.0" encoding="iso-8859-1"?>
<!-- Generator: Adobe Illustrator 18.0.0, SVG Export Plug-In . SVG Version: 6.00 Build 0)  -->
<!DOCTYPE svg PUBLIC "-//W3C//DTD SVG 1.1//EN" "http://www.w3.org/Graphics/SVG/1.1/DTD/svg11.dtd">
<svg version="1.1" id="Capa_1" xmlns="http://www.w3.org/2000/svg" xmlns:xlink="http://www.w3.org/1999/xlink" x="0px" y="0px"
	 viewBox="0 0 19.792 21.173" style="enable-background:new 0 0 19.792 21.173;" xml:space="preserve">
<g>
	<path d="M15.067,21.173h-2.65c-0.276,0-0.5-0.224-0.5-0.5v-4.646c0-0.602-0.49-1.092-1.093-1.092H8.965
		c-0.603,0-1.093,0.49-1.093,1.092v4.646c0,0.276-0.224,0.5-0.5,0.5h-2.66c-1.154,0-2.093-0.938-2.093-2.092v-7.285
		c-0.63,0.003-1.595,0.05-1.597,0.05c-0.146,0.021-0.28-0.046-0.38-0.146c-0.851-0.852-0.855-2.519-0.009-3.365l7.717-7.717
		c0.822-0.824,2.258-0.824,3.082,0l7.716,7.717c0.406,0.406,0.641,1.019,0.645,1.68c0.004,0.666-0.226,1.281-0.632,1.686
		c-0.1,0.1-0.235,0.159-0.379,0.146c-0.003,0-0.998-0.041-1.62-0.05v7.285C17.16,20.234,16.221,21.173,15.067,21.173z
		 M12.917,20.173h2.15c0.603,0,1.093-0.49,1.093-1.092v-7.734c0-0.551,0.562-0.551,1.057-0.551c0.44,0,1.031,0.024,1.362,0.039
		c0.137-0.214,0.215-0.504,0.213-0.813c-0.003-0.396-0.134-0.762-0.352-0.979l-7.716-7.717c-0.445-0.445-1.223-0.445-1.667,0
		L1.339,9.042c-0.416,0.416-0.454,1.282-0.118,1.793c0.328-0.015,0.912-0.039,1.347-0.039c0.468,0,1.051,0,1.051,0.551v7.734
		c0,0.602,0.49,1.092,1.093,1.092h2.16v-4.146c0-1.153,0.939-2.092,2.093-2.092h1.858c1.154,0,2.093,0.938,2.093,2.092V20.173z"/>
	<path d="M17.263,9.796c-0.103,0-0.205-0.039-0.283-0.117l-6.385-6.385c-0.374-0.375-1.026-0.375-1.399,0L2.81,9.679
		c-0.156,0.156-0.409,0.156-0.565,0s-0.156-0.41,0-0.566L8.63,2.728c0.676-0.675,1.854-0.676,2.53,0l6.385,6.385
		c0.156,0.156,0.156,0.41,0,0.566C17.467,9.757,17.365,9.796,17.263,9.796z"/>
</g>
<g>
</g>
<g>
</g>
<g>
</g>
<g>
</g>
<g>
</g>
<g>
</g>
<g>
</g>
<g>
</g>
<g>
</g>
<g>
</g>
<g>
</g>
<g>
</g>
<g>
</g>
<g>
</g>
<g>
</g>
</svg>
